<svg xmlns="http://www.w3.org/2000/svg" viewBox="0 0 372 372"><defs><style>.cls-1{fill:#f6f7f3;}.cls-2{fill:#3cac54;}</style></defs><title>lightup-icon-color</title><g id="Layer_2" data-name="Layer 2"><g id="Layer_11" data-name="Layer 11"><circle class="cls-1" cx="186" cy="186" r="186"/></g><g id="Layer_12" data-name="Layer 12"><circle class="cls-2" cx="13.5" cy="272.5" r="4.5"/><circle class="cls-2" cx="346.5" cy="105.5" r="4.5"/></g><g id="Layer_20" data-name="Layer 20"><path class="cls-2" d="M191.49,142.53c1.15,9.55.83,21.14-8.12,26.46-5.58,3.32-11.8,3.76-18.56,3.3-.74-.05-4.09-.47-2.13-.17-.68-.1-1.35-.21-2-.34a23.55,23.55,0,0,1-12.55-6.23,30.74,30.74,0,0,1-7.25-12.14,49.53,49.53,0,0,1-1.51-5.57c-.15-.72-.27-1.44-.4-2.16-.29-1.61.07,1-.06-.42-2.66-27.64,17.16-53.12,45.54-54.86,30.6-1.88,57.42,24.92,52.27,56A49.16,49.16,0,0,1,206,183.84c-13.64,5.2-29.59,6.46-44,7-7.7.28-7.74,12.28,0,12,15.44-.55,32.53-1.92,47.18-7.4A61.88,61.88,0,0,0,246,158.29c12.73-35.68-12.65-74.35-49.51-79.37-36.28-4.95-69.92,23.37-69.9,60.27,0,20.43,11.24,41.22,32.94,44.5,9.5,1.43,19.7.94,28.39-3.49C202,173,205.23,157,203.49,142.53c-.91-7.57-12.92-7.66-12,0Z"/><path class="cls-2" d="M188.18,155.67l14-17.92c2-2.55,2.49-6,0-8.49-2.07-2.07-6.48-2.57-8.49,0l-14,17.92c-2,2.55-2.49,6,0,8.49,2.07,2.07,6.48,2.57,8.49,0Z"/><path class="cls-2" d="M216.25,147.18l-14-17.92c-2-2.56-6.39-2.09-8.49,0-2.53,2.53-2,5.92,0,8.49l14,17.92c2,2.56,6.39,2.09,8.49,0,2.53-2.53,2-5.92,0-8.49Z"/><path class="cls-2" d="M169.91,217.58a209.63,209.63,0,0,0,31.68-4.15c7.55-1.62,4.35-13.19-3.19-11.57a188,188,0,0,1-28.49,3.72c-7.67.46-7.73,12.46,0,12Z"/><path class="cls-2" d="M178.24,232a101.44,101.44,0,0,0,18.63-2.25c7.54-1.65,4.35-13.22-3.19-11.57A83.69,83.69,0,0,1,178.24,220c-7.7.23-7.74,12.23,0,12Z"/><path class="cls-2" d="M117.92,280.69q-6.74,0-9.18-5.34a11.7,11.7,0,0,1-.85-4.76,42.55,42.55,0,0,1,.47-6.11,40.2,40.2,0,0,1,3.63-12,22.89,22.89,0,0,1,3.06-4.79q3.72-4.39,8.29-4.34a4.26,4.26,0,0,1,3.18,1.17,4.6,4.6,0,0,1,1.15,3.37,9.07,9.07,0,0,1-1.22,4.41,32.2,32.2,0,0,1-3.13,4.59q-1.91,2.37-4.22,5t-4.52,5.64v2a6.13,6.13,0,0,0,1.13,4.09,3.41,3.41,0,0,0,2.64,1.3q4.05,0,7.16-4.24,1.27-1.74,1.93-1.75t.66,1.7a7.82,7.82,0,0,1-.87,3.47,12.89,12.89,0,0,1-2.28,3.24,12.27,12.27,0,0,1-3.25,2.42A8.13,8.13,0,0,1,117.92,280.69Zm2.54-26.78a18.28,18.28,0,0,0,1.55-2.34,4.51,4.51,0,0,0,.57-2.17q0-1.12-.75-1.12-1.65,0-3.65,3.59a29.68,29.68,0,0,0-3,9.43q1.6-2.59,2.94-4.34Z"/><path class="cls-2" d="M131,280.69q-4.71,0-4.71-9.33a33.68,33.68,0,0,1,1.18-9.23q1.84-6.38,4.15-6.38,1.37,0,2.17,1.95a6.71,6.71,0,0,1,.61,2.94,38.19,38.19,0,0,1-1.13,7,33.85,33.85,0,0,0-1.08,5.44,1.77,1.77,0,0,0,.5,1.45,1.81,1.81,0,0,0,1.18.4,2.9,2.9,0,0,0,1.72-.95q1-.95,2.07-2.07l1.91-2.07q.87-.95,1.2-.95.66,0,.66,1.7,0,3.49-3.32,6.81A9.75,9.75,0,0,1,131,280.69Zm1.93-29a7.83,7.83,0,0,1-1.27-4.29,9.34,9.34,0,0,1,.68-3.82,9.8,9.8,0,0,1,1.29-2.24,1.82,1.82,0,0,1,1.41-.72q1.32,0,2.4,2.07a7.89,7.89,0,0,1,1.08,3.47,5.06,5.06,0,0,1-1.72,4.06A5.81,5.81,0,0,1,132.89,251.71Z"/><path class="cls-2" d="M157.05,257.85q.66-2.19,2.12-2.19t2.5,2a6.46,6.46,0,0,1,1.18,3,38.85,38.85,0,0,1-1.18,6.51q-1.08,4.46-3.06,11.6a36.45,36.45,0,0,0,6.12-6.63q1-1.4,1.77-2.27t1.2-.87q.66,0,.66,1.6,0,3.14-3.32,7.33a23.25,23.25,0,0,1-8.12,6.53q-.56,2-1.22,3.79a11.75,11.75,0,0,1-1.7,3.14q-2.26,2.89-6.88,2.89a7.82,7.82,0,0,1-5.3-1.89,6,6,0,0,1-2.19-4.74,3.17,3.17,0,0,1,1-2.44,7,7,0,0,1,2.66-1.45,29.42,29.42,0,0,1,4-.95q2.28-.4,4.88-1c.16-.57.29-1.12.4-1.67s.23-1.11.35-1.67a8.7,8.7,0,0,1-6.33,2.54,7.18,7.18,0,0,1-7.75-7.53q0-8.48,5.32-13.37a11.28,11.28,0,0,1,7.63-3.34,13.71,13.71,0,0,1,2.94.35A9.05,9.05,0,0,1,157.05,257.85Zm-6.41,28.48q-1.7.35-3,.55l-2.1.35a4.84,4.84,0,0,0-1.22.35.67.67,0,0,0-.4.65,1.84,1.84,0,0,0,1.06,1.55,3.66,3.66,0,0,0,2.1.6Q148.91,290.36,150.65,286.32Zm-4.95-14.56q0,3.84,2.68,3.84a5,5,0,0,0,3.06-1.2,8.17,8.17,0,0,0,2.5-3.89q.71-3.49,1.48-6.43t1.06-4.09a13.44,13.44,0,0,0-7.37,3.74A10.53,10.53,0,0,0,145.7,271.76Z"/><path class="cls-2" d="M181.69,263.78q0-1.8-2-1.79t-3.93,3.27a17.84,17.84,0,0,0-2.4,6.66l.19,2.29q.09,1.15.09,2.24,0,2.64-1.65,3.59l-1.44.85a3.06,3.06,0,0,1-1.58.4q-.9,0-1.58-1.27a8.74,8.74,0,0,1-.68-4,72,72,0,0,1,1-13.07,72.91,72.91,0,0,1,6.36-18.35,2,2,0,0,1,1.93-1.32q1.27,0,2.07,1.87a7.76,7.76,0,0,1,.78,3.09,9,9,0,0,1-.38,2.42,15.75,15.75,0,0,1-.89,2.29q-.54,1.12-1.22,2.29T175,257.8l-.71,3.59a9.13,9.13,0,0,1,4.95-4.34,7.44,7.44,0,0,1,2.5-.4,6.92,6.92,0,0,1,4.85,1.52,5.55,5.55,0,0,1,1.65,4.29,24,24,0,0,1-.68,5.61q-.68,2.84-1,4.07a8.6,8.6,0,0,0-.31,2q0,.8.52.8a2.9,2.9,0,0,0,1.74-.95q1-.95,2.07-2.07l1.91-2.07q.87-.95,1.2-.95.66,0,.66,1.7,0,3.49-3.25,6.73-5.46,3.39-7,3.39a.26.26,0,0,1-.19,0q-3.77,0-3.77-6.38a23.9,23.9,0,0,1,.5-5q.5-2.29.73-3.34A9.73,9.73,0,0,0,181.69,263.78Z"/><path class="cls-2" d="M194.15,277.82a12.52,12.52,0,0,1-.78-3.09,39.94,39.94,0,0,1-.24-5,44.91,44.91,0,0,1,1.13-8.63h-2.12q-.56,0-.56-.5a7.62,7.62,0,0,1,.21-2,5.16,5.16,0,0,1,1-1.77h1.13c.44,0,.91,0,1.41,0q2.26-7.68,4.62-7.68,1.88.05,2.64,2.54.19.7.42,1.5l-1.93,3.59q3.3.1,4.17.1c.58,0,.89.06.94.17a1.48,1.48,0,0,1,.07.52,8.23,8.23,0,0,1-.4,2.25q-.4,1.35-.92,1.3l-4.71-.25a65.09,65.09,0,0,0-1,10.07q0,4,1.08,4a7.83,7.83,0,0,0,3.25-1.57,13.07,13.07,0,0,0,3.39-3q1-1.45,1.7-1.45t.66,1.7a6.42,6.42,0,0,1-1.13,3.47,14.64,14.64,0,0,1-2.85,3.24,15.91,15.91,0,0,1-3.82,2.42,9.11,9.11,0,0,1-3.65.95,3.35,3.35,0,0,1-2.38-.77A5.87,5.87,0,0,1,194.15,277.82Z"/><path class="cls-2" d="M230.16,259.49q0-3.34,4.66-3.34a1.35,1.35,0,0,1,1.46.85,8.58,8.58,0,0,1,.29,2.59,45,45,0,0,1-1,7.58,40.15,40.15,0,0,0-.94,6.93q0,.85.49.85a2.72,2.72,0,0,0,1.66-.95q1-.95,2-2.07l1.81-2.07q.83-.95,1.14-.95.63,0,.63,1.7a9.74,9.74,0,0,1-3.09,6.73q-5.2,3.39-6.59,3.39a.46.46,0,0,1-.22,0,2.51,2.51,0,0,1-2.4-1.25,8,8,0,0,1-.87-3.14,9.56,9.56,0,0,1-2.46,3.17,5.41,5.41,0,0,1-3.58,1.32,8.64,8.64,0,0,1-5.45-1.5,5.3,5.3,0,0,1-1.9-4.44,8.12,8.12,0,0,1,.34-2.39,20.3,20.3,0,0,1,1.1-2.69l1.3-12.27a5.94,5.94,0,0,1,4-1.2q2.06,0,2.33,3a14.23,14.23,0,0,1-.2,4.36q-.43,1.92-1.14,4.84a21.93,21.93,0,0,0-.72,5.16q0,1.8,2,1.8,2.2,0,3.81-4.29a29.77,29.77,0,0,0,1.7-7.33q0-.4-.07-1l0-1.22q0-.6,0-1.2Z"/><path class="cls-2" d="M248.58,259.64a7.28,7.28,0,0,1,6-2.94q5.2,0,6.59,4.69a11.1,11.1,0,0,1,.4,3.09,14.38,14.38,0,0,1-2.22,7.48,11.51,11.51,0,0,1-5.36,5h.54a10.65,10.65,0,0,0,6.63-2.69,15.94,15.94,0,0,0,3.38-3.52q1.23-1.82,1.86-1.82t.63,1.6a9.34,9.34,0,0,1-2.15,5.64,12.34,12.34,0,0,1-8.25,4.79,18.66,18.66,0,0,1-5.15.15,8.23,8.23,0,0,1-2.33-.75,3.24,3.24,0,0,1-1.75-3,4.8,4.8,0,0,1,.4-2,5.93,5.93,0,0,0,5.38-3,14.07,14.07,0,0,0,1.84-7.48,3,3,0,0,0-.72-2,2.34,2.34,0,0,0-1.9-.87,4.19,4.19,0,0,0-2.58,1.15,8.38,8.38,0,0,0-2.22,2.87q-.83,1.72-1.5,3.39a19.74,19.74,0,0,0-1.08,4.21q-.72,4.59-1.64,11.6t-1.14,7.53a3.12,3.12,0,0,1-.67,1,1.33,1.33,0,0,1-.94.45,2,2,0,0,1-1.48-.6,7.28,7.28,0,0,1-1.88-2.37,7,7,0,0,1-.27-2.12,88.9,88.9,0,0,1,1.48-13.71A96.35,96.35,0,0,1,243.56,257a1.93,1.93,0,0,1,1.9-1.4q1.37,0,2.62,2.69A5.61,5.61,0,0,1,248.58,259.64Z"/></g></g></svg>