<svg xmlns="http://www.w3.org/2000/svg" viewBox="0 0 155.5 508">
  <defs>
    <style>
      .cls-1{fill:none;stroke-width:8px;}
      .cls-1,.cls-2{stroke:#c0b790;stroke-miterlimit:10;}
      .cls-2{stroke-width:2px;fill:#c0b790;}
      .path {stroke-dasharray: 1000;stroke-dashoffset: 1000;animation: dash 3s linear forwards;/*animation-iteration-count: infinite;*/}
      @keyframes dash {
        to {
          stroke-dashoffset: 0;
        }
      }
    </style>
  </defs>
  <title>plant</title>
  <g id="Layer_2" data-name="Layer 2">
    <g id="Layer_2-2" data-name="Layer 2">
      <path class="cls-1 path" d="M0,508c.12-11.17.86-22.29,1.83-33.39s2.27-22.17,3.84-33.2,3.42-22,5.52-33,4.43-21.84,7.09-32.66c1.26-5.43,2.73-10.8,4.11-16.2s2.92-10.75,4.56-16.08c3.1-10.7,6.63-21.27,10.26-31.8A626.18,626.18,0,0,1,62.77,250l14.86-29.92c2.54-5,4.77-10.06,7.13-15.1s4.74-10.08,6.88-15.21l6.6-15.34,6.25-15.49c2.13-5.14,4-10.38,6-15.58l2.95-7.81c1-2.61,1.87-5.24,2.81-7.86q11.27-31.44,20.56-63.55,4.66-16,9.06-32.15c1.48-5.37,2.93-10.74,4.46-16.1.78-2.67,1.5-5.36,2.37-8,.43-1.32.82-2.66,1.28-4L155.5,0,154,3.89c-.46,1.31-.85,2.65-1.27,4-.87,2.65-1.58,5.34-2.35,8-1.52,5.36-3,10.74-4.43,16.1q-4.36,16.12-9,32.17-9.3,32.09-20.45,63.6c-.93,2.62-1.83,5.26-2.8,7.87l-2.93,7.82c-2,5.21-3.86,10.45-6,15.6l-6.22,15.5L92,189.9c-2.13,5.15-4.55,10.16-6.85,15.23S80.56,215.3,78,220.26L63.23,250.2a625.62,625.62,0,0,0-25.44,61.71C34.18,322.44,30.68,333,27.6,343.7c-1.62,5.32-3,10.71-4.52,16.07S20.25,370.54,19,376c-2.63,10.81-4.94,21.7-7,32.64s-3.91,21.91-5.45,32.93-2.82,22.08-3.77,33.16S1.09,496.9,1,508Z"/>
    </g>
  </g>
</svg>
