<svg xmlns="http://www.w3.org/2000/svg" viewBox="0 0 422 422"><defs><style>.cls-1{fill:#e2f3e6;}.cls-2{fill:none;stroke:#3cac54;stroke-miterlimit:10;stroke-width:7px;}.cls-3{fill:#3cac54;}</style></defs><title>product-step2-image-color</title><g id="Layer_2" data-name="Layer 2"><g id="Layer_1-2" data-name="Layer 1"><circle class="cls-1" cx="211" cy="211" r="211"/></g><g id="Layer_10" data-name="Layer 10"><path class="cls-2" d="M221,278.87c14,28.91-22.44,37-53.43,36.07a200.36,200.36,0,0,1-46.25-7.42V155.74l85.3-18.15c25.69,3.3,21.58,11.55,21.58,11.55l-3.08,119.6c-5.32,15.19-36.88,19.12-62.69,18.15a159.82,159.82,0,0,1-33.92-4.95s-5.52-1.27-6.52-2.17"/><path class="cls-2" d="M121.94,156.77c-.58.25,29.86,2.14,61.67,1.68,21.55-.31,40.74-4.33,44.71-9.33"/><polygon class="cls-2" points="121.19 143.4 201.84 125.63 202.65 95 122 112.77 121.19 143.4"/></g><g id="Layer_11" data-name="Layer 11"><ellipse class="cls-3" cx="285.22" cy="238.88" rx="5.79" ry="5.12"/><path class="cls-2" d="M274.33,229.78s9.66-8.51,21.46,0"/><path class="cls-2" d="M263,218.51a40,40,0,0,1,22-6.51c11.6,0,17.4,4.07,20.88,6.51"/><path class="cls-2" d="M254,207.9s11.2-9.9,29.95-9.9c21.1,0,30.27,9.32,31.05,9.9"/></g></g></svg>