<svg xmlns="http://www.w3.org/2000/svg" viewBox="0 0 422 422"><defs><style>.cls-1{fill:#e2e8de;}.cls-2{fill:#81996d;}.cls-3,.cls-4{fill:none;stroke:#81996d;stroke-miterlimit:10;}.cls-3{stroke-width:10px;}.cls-4{stroke-width:30px;}</style></defs><title>product-step1-image_1</title><g id="Layer_2" data-name="Layer 2"><g id="Layer_1-2" data-name="Layer 1"><circle class="cls-1" cx="211" cy="211" r="211"/></g><g id="Layer_2-2" data-name="Layer 2"><path class="cls-2" d="M192,151v46H146V151h46m10-10H136v66h66V141Z"/><path class="cls-2" d="M276,150v46H230V150h46m10-10H220v66h66V140Z"/><path class="cls-2" d="M192,233v46H146V233h46m10-10H136v66h66V223Z"/><rect class="cls-3" x="164" y="169" width="10" height="10"/><rect class="cls-3" x="248" y="169" width="10" height="10"/><rect class="cls-3" x="164" y="251" width="10" height="10"/></g><g id="Layer_4" data-name="Layer 4"><line class="cls-3" x1="225" y1="289" x2="225" y2="230"/></g><g id="Layer_5" data-name="Layer 5"><line class="cls-4" x1="220" y1="238" x2="260" y2="238"/></g><g id="Layer_6" data-name="Layer 6"><line class="cls-4" x1="245" y1="251" x2="286" y2="251"/></g><g id="Layer_7" data-name="Layer 7"><line class="cls-3" x1="281" y1="253" x2="281" y2="223"/></g><g id="Layer_8" data-name="Layer 8"><line class="cls-3" x1="245" y1="284" x2="259" y2="284"/></g><g id="Layer_9" data-name="Layer 9"><line class="cls-3" x1="272" y1="284" x2="286" y2="284"/></g></g></svg>