<svg xmlns="http://www.w3.org/2000/svg" viewBox="0 0 422 422">
  <defs>
    <style>
      .cls-1{fill:#e2f3e6;}
      .cls-2,.cls-3{fill:none;stroke:#3cac54;stroke-miterlimit:10;}
      .cls-2{stroke-width:8px;}
      .cls-3{stroke-width:4px;}
      .cls-4{fill:#3cac54;}
    </style>
  </defs>
  <title>sdfafdffssd</title>
  <g id="Layer_2" data-name="Layer 2">
    <g id="Layer_1-2" data-name="Layer 1">
      <circle class="cls-1" cx="211" cy="211" r="211"/></g>
      <g id="Layer_12" data-name="Layer 12">
        <rect class="cls-2" x="156" y="110" width="112" height="210" rx="12" ry="12"/>
        <rect class="cls-3" x="167" y="120.22" width="90" height="167.78" rx="5" ry="5"/>
        <circle class="cls-4" cx="211" cy="303" r="9"/>
        <path class="cls-4" d="M224,226.2h-24l1.41,1.41V209.76l-1.41,1.41h24l-1.41-1.41v17.86a1.41,1.41,0,0,0,2.82,0V209.76a1.43,1.43,0,0,0-1.41-1.41h-24a1.43,1.43,0,0,0-1.41,1.41v17.86a1.43,1.43,0,0,0,1.41,1.41h24A1.41,1.41,0,0,0,224,226.2Z"/><path class="cls-4" d="M205.13,210.89a1.13,1.13,0,0,1-1.13-1.13v-3.17a1.13,1.13,0,0,1,2.26,0v3.17A1.13,1.13,0,0,1,205.13,210.89Z"/><path class="cls-4" d="M219.1,210.89a1.13,1.13,0,0,1-1.13-1.13v-3.17a1.13,1.13,0,0,1,2.26,0v3.17A1.13,1.13,0,0,1,219.1,210.89Z"/><path class="cls-4" d="M217.36,221.57H206.6l1.13,1.13v-8l-1.13,1.13h10.76l-1.13-1.13v8a1.13,1.13,0,0,0,2.26,0v-8a1.15,1.15,0,0,0-1.13-1.13H206.6a1.15,1.15,0,0,0-1.13,1.13v8a1.15,1.15,0,0,0,1.13,1.13h10.76A1.13,1.13,0,0,0,217.36,221.57Z"/><path class="cls-4" d="M200.06,226.76h-3.17a1.13,1.13,0,0,1,0-2.26h3.17a1.13,1.13,0,1,1,0,2.26Z"/><path class="cls-4" d="M200.06,212.8h-3.17a1.13,1.13,0,0,1,0-2.26h3.17a1.13,1.13,0,1,1,0,2.26Z"/>
        <path class="cls-4" d="M200.06,219.78h-3.17a1.13,1.13,0,0,1,0-2.26h3.17a1.13,1.13,0,1,1,0,2.26Z"/>
        <path class="cls-4" d="M219.1,232a1.13,1.13,0,0,1-1.13-1.13V227.7a1.13,1.13,0,1,1,2.26,0v3.17A1.13,1.13,0,0,1,219.1,232Z"/>
        <path class="cls-4" d="M205.13,232a1.13,1.13,0,0,1-1.13-1.13V227.7a1.13,1.13,0,1,1,2.26,0v3.17A1.13,1.13,0,0,1,205.13,232Z"/><path class="cls-4" d="M212.12,232a1.13,1.13,0,0,1-1.13-1.13V227.7a1.13,1.13,0,1,1,2.26,0v3.17A1.13,1.13,0,0,1,212.12,232Z"/><path class="cls-4" d="M227.2,226.92H224a1.13,1.13,0,0,1,0-2.26h3.17a1.13,1.13,0,0,1,0,2.26Z"/><path class="cls-4" d="M227.2,213H224a1.13,1.13,0,0,1,0-2.26h3.17a1.13,1.13,0,0,1,0,2.26Z"/><path class="cls-4" d="M227.2,219.94H224a1.13,1.13,0,0,1,0-2.26h3.17a1.13,1.13,0,0,1,0,2.26Z"/>
        <path class="cls-4" d="M211,210v-7.17c-5.12.44-9.39-.79-12.72-3.64-3.09-2.66-5.35-6.8-6.53-12a33.47,33.47,0,0,1-.86-7.05V179l1.16,0c11.21.37,16.39,6.75,18.76,12a29.07,29.07,0,0,1,2.43,11.33V210M193.2,181.36c.19,3.1,1.2,11.51,6.56,16.11,2.87,2.46,6.61,3.5,11.16,3.09a27.15,27.15,0,0,0-2.18-8.63C205.82,185.49,200.6,181.94,193.2,181.36Z"/>
        <path class="cls-4" d="M219.84,203a25.1,25.1,0,0,1-4-.34l0-.15h-.23A29,29,0,0,1,218,191.16c2.37-5.29,7.55-11.67,18.76-12l1.16,0v1.16a33.47,33.47,0,0,1-.86,7.05c-1.18,5.18-3.43,9.32-6.53,12A16,16,0,0,1,219.84,203Zm-1.89-2.35c4.54.4,8.29-.63,11.16-3.09,5.36-4.6,6.37-13,6.56-16.11-7.42.58-12.65,4.15-15.56,10.64A27.11,27.11,0,0,0,217.95,200.65Z"/>
      </g>
  </g>
</svg>
