<svg xmlns="http://www.w3.org/2000/svg" viewBox="0 0 422 422"><defs><style>.cls-1{fill:#e2f3e6;}.cls-2{fill:none;stroke:#3cac54;stroke-miterlimit:10;stroke-width:7px;}.cls-3{fill:#3cac54;}</style></defs><title>product-step2-image-final</title><g id="Layer_2" data-name="Layer 2"><g id="Layer_1-2" data-name="Layer 1"><circle class="cls-1" cx="211" cy="211" r="211"/></g><g id="Layer_10" data-name="Layer 10"><path class="cls-2" d="M225.34,260.47"/><path class="cls-2" d="M122.5,243.5c1,.9,7.32,2.44,7.32,2.44a159.82,159.82,0,0,0,33.92,4.95c25.82,1,57.37-3,62.69-18.15l.21-8.27,0-13.47,1.59-61.86s4.11-8.25-21.58-11.55l-85.3,18.15V307.51a200.36,200.36,0,0,0,46.25,7.42c31,.93,67.43-7.16,53.43-36.07l-2.5-5.37"/><path class="cls-2" d="M121.94,156.77c-.58.25,29.86,2.14,61.67,1.68,21.55-.31,40.74-4.33,44.71-9.33"/><polygon class="cls-2" points="121.19 143.4 201.84 125.63 202.65 95 122 112.77 121.19 143.4"/></g><g id="Layer_13" data-name="Layer 13"><path class="cls-2" d="M216.72,243.57l.78,1.93,1,28c-8,41-84,20-84,20v-44"/></g><g id="Layer_11" data-name="Layer 11"><ellipse class="cls-3" cx="285.22" cy="238.88" rx="5.79" ry="5.12"/><path class="cls-2" d="M274.33,229.78s9.66-8.51,21.46,0"/><path class="cls-2" d="M263,218.51a40,40,0,0,1,22-6.51c11.6,0,17.4,4.07,20.88,6.51"/><path class="cls-2" d="M254,207.9s11.2-9.9,29.95-9.9c21.1,0,30.27,9.32,31.05,9.9"/></g></g></svg>