<svg xmlns="http://www.w3.org/2000/svg" viewBox="0 0 227.92 59.17"><defs><style>.cls-1{fill:#3cac54;}</style></defs><title>smartcrop-logo-text-fix1</title><g id="Layer_2" data-name="Layer 2"><g id="Layer_1-2" data-name="Layer 1"><path class="cls-1" d="M33.27,48.36h-24l1.41,1.41V31.92L9.31,33.33h24l-1.41-1.41V49.77a1.41,1.41,0,0,0,2.82,0V31.92a1.43,1.43,0,0,0-1.41-1.41h-24a1.43,1.43,0,0,0-1.41,1.41V49.77a1.43,1.43,0,0,0,1.41,1.41h24A1.41,1.41,0,0,0,33.27,48.36Z"/><path class="cls-1" d="M33.27,51.33h-24a1.58,1.58,0,0,1-1.56-1.56V31.92a1.58,1.58,0,0,1,1.56-1.56h24a1.58,1.58,0,0,1,1.56,1.56V49.77a1.57,1.57,0,0,1-1.56,1.56Zm-24-20.68A1.28,1.28,0,0,0,8,31.92V49.77A1.28,1.28,0,0,0,9.31,51H32.37l-.17-.12a1.45,1.45,0,0,1-.49-1.14V48.51H10.87v1.62L8.94,48.21h1.62V33.48H8.94l1.92-1.92v1.62H31.71V31.55l1.92,1.92H32V48.21h1.26a1.43,1.43,0,0,1,1.26.67v-17a1.28,1.28,0,0,0-1.26-1.26ZM32,48.51v1.26A1.19,1.19,0,0,0,33.27,51a1.12,1.12,0,0,0,1.21-1.21,1.19,1.19,0,0,0-1.21-1.26Zm-22.34,0,.9.9v-.9Zm1.2-.3H31.71V33.48H10.87ZM32,33.18h.9l-.9-.9Zm-22.34,0h.9v-.9Z"/><path class="cls-1" d="M14.39,33a1.13,1.13,0,0,1-1.13-1.13V28.74a1.13,1.13,0,1,1,2.26,0v3.17A1.13,1.13,0,0,1,14.39,33Z"/><path class="cls-1" d="M14.38,33.2a1.28,1.28,0,0,1-1.28-1.28V28.74a1.28,1.28,0,1,1,2.56,0v3.17A1.28,1.28,0,0,1,14.38,33.2Zm0-5.43a1,1,0,0,0-1,1v3.17a1,1,0,0,0,2,0V28.74A1,1,0,0,0,14.38,27.76Z"/><path class="cls-1" d="M28.35,33a1.13,1.13,0,0,1-1.13-1.13V28.74a1.13,1.13,0,1,1,2.26,0v3.17A1.13,1.13,0,0,1,28.35,33Z"/><path class="cls-1" d="M28.35,33.2a1.28,1.28,0,0,1-1.28-1.28V28.74a1.28,1.28,0,1,1,2.56,0v3.17A1.28,1.28,0,0,1,28.35,33.2Zm0-5.43a1,1,0,0,0-1,1v3.17a1,1,0,0,0,2,0V28.74A1,1,0,0,0,28.35,27.76Z"/><path class="cls-1" d="M26.61,43.72H15.85L17,44.85v-8L15.85,38H26.61l-1.13-1.13v8a1.13,1.13,0,0,0,2.26,0v-8a1.15,1.15,0,0,0-1.13-1.13H15.85a1.15,1.15,0,0,0-1.13,1.13v8A1.15,1.15,0,0,0,15.85,46H26.61A1.13,1.13,0,0,0,26.61,43.72Z"/><path class="cls-1" d="M26.61,46.13H15.85a1.3,1.3,0,0,1-1.28-1.28v-8a1.3,1.3,0,0,1,1.28-1.28H26.61a1.3,1.3,0,0,1,1.28,1.28v8a1.29,1.29,0,0,1-1.28,1.28ZM15.85,35.86a1,1,0,0,0-1,1v8a1,1,0,0,0,1,1h9.95a1.18,1.18,0,0,1-.47-1v-1h-8.2v1.34l-1.64-1.64h1.34V38.12H15.49l1.64-1.64v1.34h8.2V36.48L27,38.12H25.63v5.46h1a1.18,1.18,0,0,1,1,.47v-7.2a1,1,0,0,0-1-1Zm9.78,8v1a.92.92,0,0,0,1,.94.86.86,0,0,0,.94-.94.92.92,0,0,0-.94-1Zm-9.42,0,.62.62v-.62Zm.92-.3h8.2V38.12h-8.2Zm8.5-5.76h.62l-.62-.62Zm-9.42,0h.62V37.2Z"/><path class="cls-1" d="M9.31,48.92H6.13a1.13,1.13,0,0,1,0-2.26H9.31a1.13,1.13,0,1,1,0,2.26Z"/><path class="cls-1" d="M9.31,49.07H6.13a1.28,1.28,0,0,1,0-2.56H9.31a1.28,1.28,0,0,1,0,2.56ZM6.13,46.81a1,1,0,1,0,0,2H9.31a1,1,0,1,0,0-2Z"/><path class="cls-1" d="M9.31,35H6.13a1.13,1.13,0,0,1,0-2.26H9.31a1.13,1.13,0,1,1,0,2.26Z"/><path class="cls-1" d="M9.31,35.1H6.13a1.28,1.28,0,1,1,0-2.56H9.31a1.28,1.28,0,1,1,0,2.56ZM6.13,32.84a1,1,0,1,0,0,2H9.31a1,1,0,1,0,0-2Z"/><path class="cls-1" d="M9.31,41.93H6.13a1.13,1.13,0,0,1,0-2.26H9.31a1.13,1.13,0,1,1,0,2.26Z"/><path class="cls-1" d="M9.31,42.08H6.13a1.28,1.28,0,0,1,0-2.56H9.31a1.28,1.28,0,0,1,0,2.56ZM6.13,39.83a1,1,0,1,0,0,2H9.31a1,1,0,1,0,0-2Z"/><path class="cls-1" d="M28.35,54.16A1.13,1.13,0,0,1,27.22,53V49.85a1.13,1.13,0,0,1,2.26,0V53A1.13,1.13,0,0,1,28.35,54.16Z"/><path class="cls-1" d="M28.35,54.31A1.28,1.28,0,0,1,27.07,53V49.85a1.28,1.28,0,1,1,2.56,0V53A1.28,1.28,0,0,1,28.35,54.31Zm0-5.43a1,1,0,0,0-1,1V53a1,1,0,0,0,2,0V49.85A1,1,0,0,0,28.35,48.87Z"/><path class="cls-1" d="M14.39,54.16A1.13,1.13,0,0,1,13.26,53V49.85a1.13,1.13,0,0,1,2.26,0V53A1.13,1.13,0,0,1,14.39,54.16Z"/><path class="cls-1" d="M14.38,54.31A1.28,1.28,0,0,1,13.11,53V49.85a1.28,1.28,0,1,1,2.56,0V53A1.28,1.28,0,0,1,14.38,54.31Zm0-5.43a1,1,0,0,0-1,1V53a1,1,0,0,0,2,0V49.85A1,1,0,0,0,14.38,48.87Z"/><path class="cls-1" d="M21.37,54.16A1.13,1.13,0,0,1,20.24,53V49.85a1.13,1.13,0,0,1,2.26,0V53A1.13,1.13,0,0,1,21.37,54.16Z"/><path class="cls-1" d="M21.37,54.31A1.28,1.28,0,0,1,20.09,53V49.85a1.28,1.28,0,1,1,2.56,0V53A1.28,1.28,0,0,1,21.37,54.31Zm0-5.43a1,1,0,0,0-1,1V53a1,1,0,0,0,2,0V49.85A1,1,0,0,0,21.37,48.87Z"/><path class="cls-1" d="M36.45,49.08H33.27a1.13,1.13,0,0,1,0-2.26h3.17a1.13,1.13,0,0,1,0,2.26Z"/><path class="cls-1" d="M36.45,49.23H33.27a1.28,1.28,0,1,1,0-2.56h3.17a1.28,1.28,0,1,1,0,2.56ZM33.27,47a1,1,0,1,0,0,2h3.17a1,1,0,1,0,0-2Z"/><path class="cls-1" d="M36.45,35.11H33.27a1.13,1.13,0,0,1,0-2.26h3.17a1.13,1.13,0,1,1,0,2.26Z"/><path class="cls-1" d="M36.45,35.26H33.27a1.28,1.28,0,0,1,0-2.56h3.17a1.28,1.28,0,0,1,0,2.56ZM33.27,33a1,1,0,1,0,0,2h3.17a1,1,0,1,0,0-2Z"/><path class="cls-1" d="M36.45,42.09H33.27a1.13,1.13,0,0,1,0-2.26h3.17a1.13,1.13,0,1,1,0,2.26Z"/><path class="cls-1" d="M36.45,42.24H33.27a1.28,1.28,0,0,1,0-2.56h3.17a1.28,1.28,0,0,1,0,2.56ZM33.27,40a1,1,0,1,0,0,2h3.17a1,1,0,1,0,0-2Z"/><path class="cls-1" d="M20.25,31.15V24c-5.12.44-9.39-.79-12.72-3.64-3.09-2.66-5.35-6.8-6.53-12A33.47,33.47,0,0,1,.15,1.31V.16l1.16,0c11.21.37,16.39,6.75,18.76,12a29.07,29.07,0,0,1,2.43,11.33v7.58M2.45,2.52C2.64,5.62,3.65,14,9,18.63c2.87,2.46,6.61,3.5,11.16,3.09A27.15,27.15,0,0,0,18,13.09C15.07,6.65,9.85,3.09,2.45,2.52Z"/><path class="cls-1" d="M22.66,31.15h-.3V23.57A29.15,29.15,0,0,0,19.94,12.3C17.59,7,12.45.71,1.31.34l-1,0v1a33.66,33.66,0,0,0,.85,7c1.17,5.15,3.41,9.26,6.48,11.89,3.29,2.83,7.53,4,12.61,3.61h.16v7.33h-.3v-7c-5.09.4-9.35-.84-12.67-3.69C4.32,17.78,2,13.61.86,8.4A33.42,33.42,0,0,1,0,1.31V0L1.32,0c11.29.38,16.5,6.8,18.89,12.13a29.47,29.47,0,0,1,2.45,11.4ZM18.3,22a14,14,0,0,1-9.39-3.21C3.56,14.15,2.51,5.87,2.3,2.53V2.36h.17C9.92,2.95,15.19,6.54,18.12,13a27.14,27.14,0,0,1,2.19,8.68v.15h-.15Q19.22,22,18.3,22ZM2.61,2.68c.23,3.41,1.32,11.39,6.5,15.83,2.8,2.4,6.46,3.43,10.9,3.07a26.78,26.78,0,0,0-2.16-8.43C15,6.82,9.86,3.29,2.61,2.68Z"/></g><g id="Layer_2-2" data-name="Layer 2"><path class="cls-1" d="M52.06,50.14a8.82,8.82,0,0,1-3.38-2A1.52,1.52,0,0,1,48.21,47a1.67,1.67,0,0,1,.72-1.4,2.18,2.18,0,0,1,1.26-.5,1.93,1.93,0,0,1,1.37.65,5.56,5.56,0,0,0,2.05,1.31,7.66,7.66,0,0,0,2.92.56A6.19,6.19,0,0,0,59.71,47a2.07,2.07,0,0,0,1.13-1.84,2.17,2.17,0,0,0-1.12-1.85A11,11,0,0,0,56,42Q49,40.7,49,36.35a4.45,4.45,0,0,1,1-3,6.35,6.35,0,0,1,2.74-1.84,10.5,10.5,0,0,1,3.6-.61,11,11,0,0,1,4.19.76,7.18,7.18,0,0,1,2.93,2.09A1.83,1.83,0,0,1,64,34.91,1.44,1.44,0,0,1,63.4,36a1.67,1.67,0,0,1-1,.29,2.46,2.46,0,0,1-1.69-.68,5.39,5.39,0,0,0-1.91-1.17,7.69,7.69,0,0,0-2.45-.34,5.83,5.83,0,0,0-2.72.56,1.72,1.72,0,0,0-1.06,1.57,2,2,0,0,0,.36,1.21,3.19,3.19,0,0,0,1.37.9,17.4,17.4,0,0,0,2.92.81,12.55,12.55,0,0,1,5.56,2.2A4.56,4.56,0,0,1,64.41,45a5.3,5.3,0,0,1-.9,3,6,6,0,0,1-2.65,2.12,10.29,10.29,0,0,1-4.19.77A13.85,13.85,0,0,1,52.06,50.14Z"/><path class="cls-1" d="M93,32.93a8,8,0,0,1,1.93,5.72v10.3a1.81,1.81,0,0,1-.5,1.31,1.85,1.85,0,0,1-3.17-1.31V38.65a4.61,4.61,0,0,0-1.1-3.33,3.9,3.9,0,0,0-2.93-1.13,4,4,0,0,0-3.08,1.3A4.67,4.67,0,0,0,83,38.8V48.95a1.81,1.81,0,0,1-.5,1.31,1.85,1.85,0,0,1-3.17-1.31V38.65a4.61,4.61,0,0,0-1.1-3.33,3.9,3.9,0,0,0-2.93-1.13,4.06,4.06,0,0,0-3.11,1.3,4.67,4.67,0,0,0-1.21,3.31V48.95a1.81,1.81,0,0,1-.5,1.31,1.84,1.84,0,0,1-3.17-1.31v-16a1.77,1.77,0,0,1,.52-1.33,1.82,1.82,0,0,1,1.31-.5,1.79,1.79,0,0,1,1.3.49,1.82,1.82,0,0,1,.54,1.28,6.61,6.61,0,0,1,2.23-1.46A7.46,7.46,0,0,1,76,30.88a7.2,7.2,0,0,1,3.29.74,6.32,6.32,0,0,1,2.39,2.11,7.53,7.53,0,0,1,2.7-2.09,8.41,8.41,0,0,1,3.6-.76A6.61,6.61,0,0,1,93,32.93Z"/><path class="cls-1" d="M113.17,32.23a9.69,9.69,0,0,1,3.56,3.6,10,10,0,0,1,1.31,5.09v8a1.84,1.84,0,1,1-3.67,0V47.62a9.07,9.07,0,0,1-11.65,2A9.08,9.08,0,0,1,99.42,46a10.74,10.74,0,0,1-1.21-5.09,10.14,10.14,0,0,1,1.3-5.09,9.46,9.46,0,0,1,3.58-3.6,10,10,0,0,1,5.06-1.31A9.78,9.78,0,0,1,113.17,32.23Zm-1.76,14.54a6.22,6.22,0,0,0,2.29-2.41,7.11,7.11,0,0,0,.83-3.44,7.22,7.22,0,0,0-.83-3.46,6.35,6.35,0,0,0-8.8-2.43,6.33,6.33,0,0,0-2.3,2.43,7.08,7.08,0,0,0-.85,3.46,7,7,0,0,0,.85,3.44,6.35,6.35,0,0,0,2.3,2.41,6.46,6.46,0,0,0,6.52,0Z"/><path class="cls-1" d="M134.36,31.42a1.68,1.68,0,0,1,1.08,1.44,1.27,1.27,0,0,1,0,.36A1.39,1.39,0,0,1,134,34.37a2.94,2.94,0,0,1-.54-.07,14.32,14.32,0,0,0-2.34-.25,6.79,6.79,0,0,0-4.18,1.19,3.8,3.8,0,0,0-1.58,3.2V48.95a1.84,1.84,0,0,1-.45,1.33,1.79,1.79,0,0,1-1.35.47,1.84,1.84,0,0,1-1.33-.45,1.79,1.79,0,0,1-.47-1.35V32.86a1.63,1.63,0,0,1,1.8-1.8,1.59,1.59,0,0,1,1.8,1.8v.68a7.59,7.59,0,0,1,2.66-2,8.07,8.07,0,0,1,3.38-.72A6.42,6.42,0,0,1,134.36,31.42Z"/><path class="cls-1" d="M138.25,31.78V26.59a1.8,1.8,0,1,1,3.6,0v5.18h3.06a1.73,1.73,0,0,1,1.22.43,1.5,1.5,0,0,1,.47,1.15,1.41,1.41,0,0,1-.47,1.08,1.73,1.73,0,0,1-1.22.43h-3.06v8.89a3.69,3.69,0,0,0,.79,2.41,2.42,2.42,0,0,0,1.94,1h1.22a1.42,1.42,0,0,1,1.1.5,1.88,1.88,0,0,1,.45,1.3,1.62,1.62,0,0,1-.59,1.3,2.28,2.28,0,0,1-1.53.5h-.65a5.93,5.93,0,0,1-3.22-.92,6.39,6.39,0,0,1-2.29-2.5,7.56,7.56,0,0,1-.83-3.56V34.87"/><path class="cls-1" d="M153.87,49.6A9.24,9.24,0,0,1,150.32,46,10.27,10.27,0,0,1,149,40.92a10.65,10.65,0,0,1,1.24-5.17,8.94,8.94,0,0,1,3.47-3.56,10,10,0,0,1,5-1.28,9,9,0,0,1,7.06,3.24,1.35,1.35,0,0,1,.36.94,1.58,1.58,0,0,1-.79,1.33,1.4,1.4,0,0,1-.83.25,1.81,1.81,0,0,1-1.4-.65,5.72,5.72,0,0,0-2-1.42,6.18,6.18,0,0,0-2.43-.45A5.87,5.87,0,0,0,154.3,36a6.92,6.92,0,0,0-1.73,4.91,7.31,7.31,0,0,0,.81,3.47,6,6,0,0,0,2.27,2.39,6.4,6.4,0,0,0,3.33.86,6,6,0,0,0,4-1.26,2.26,2.26,0,0,1,1.33-.5,1.53,1.53,0,0,1,.94.32,1.68,1.68,0,0,1,.68,1.3,1.35,1.35,0,0,1-.43,1A9.15,9.15,0,0,1,159,50.89,10.12,10.12,0,0,1,153.87,49.6Z"/><path class="cls-1" d="M182.53,31.42a1.68,1.68,0,0,1,1.08,1.44,1.27,1.27,0,0,1,0,.36,1.39,1.39,0,0,1-1.44,1.15,2.94,2.94,0,0,1-.54-.07,14.32,14.32,0,0,0-2.34-.25,6.79,6.79,0,0,0-4.18,1.19,3.8,3.8,0,0,0-1.58,3.2V48.95a1.84,1.84,0,0,1-.45,1.33,1.79,1.79,0,0,1-1.35.47,1.84,1.84,0,0,1-1.33-.45,1.79,1.79,0,0,1-.47-1.35V32.86a1.63,1.63,0,0,1,1.8-1.8,1.59,1.59,0,0,1,1.8,1.8v.68a7.59,7.59,0,0,1,2.66-2,8.07,8.07,0,0,1,3.38-.72A6.42,6.42,0,0,1,182.53,31.42Z"/><path class="cls-1" d="M189.37,49.61a9,9,0,0,1-3.53-3.55,11.22,11.22,0,0,1,0-10.33,9,9,0,0,1,3.53-3.55,10.31,10.31,0,0,1,5.15-1.28,10.14,10.14,0,0,1,5.09,1.28,9.19,9.19,0,0,1,3.53,3.55,11.15,11.15,0,0,1,0,10.33,9.06,9.06,0,0,1-3.51,3.55,10.21,10.21,0,0,1-5.13,1.28A10.31,10.31,0,0,1,189.37,49.61Zm8.44-2.83a6,6,0,0,0,2.27-2.39,7.33,7.33,0,0,0,.81-3.47,7.43,7.43,0,0,0-.81-3.49A6,6,0,0,0,197.81,35a6.71,6.71,0,0,0-6.59,0,6.07,6.07,0,0,0-2.29,2.41,7.28,7.28,0,0,0-.83,3.49,7.18,7.18,0,0,0,.83,3.47,6.1,6.1,0,0,0,2.29,2.39,6.72,6.72,0,0,0,6.59,0Z"/><path class="cls-1" d="M223,32.23a9.48,9.48,0,0,1,3.58,3.6,10.15,10.15,0,0,1,1.3,5.09A10.75,10.75,0,0,1,226.72,46a9.09,9.09,0,0,1-3.31,3.58,9,9,0,0,1-11.65-2v9.72a1.87,1.87,0,0,1-3.15,1.33,1.77,1.77,0,0,1-.52-1.33V40.92a10,10,0,0,1,1.31-5.09A9.71,9.71,0,0,1,218,30.91,10,10,0,0,1,223,32.23Zm-1.8,14.54a6.36,6.36,0,0,0,2.3-2.41,7,7,0,0,0,.85-3.44,7.09,7.09,0,0,0-.85-3.46,6.34,6.34,0,0,0-2.3-2.43,6.27,6.27,0,0,0-8.8,2.43,7.22,7.22,0,0,0-.83,3.46,7.11,7.11,0,0,0,.83,3.44,6.36,6.36,0,0,0,8.8,2.41Z"/></g><g id="Layer_5" data-name="Layer 5"><path class="cls-1" d="M29.09,24.15a14.24,14.24,0,0,1-4-.4l-.2-.09a29,29,0,0,1,2.43-11.35C29.66,7,34.84.65,46.05.28l1.16,0V1.4a33.47,33.47,0,0,1-.86,7.05c-1.18,5.18-3.43,9.32-6.53,12A16,16,0,0,1,29.09,24.15ZM27.2,21.8c4.54.4,8.29-.63,11.16-3.09,5.36-4.6,6.37-13,6.56-16.11-7.42.58-12.65,4.15-15.56,10.64A27.11,27.11,0,0,0,27.2,21.8Z"/><path class="cls-1" d="M29.09,24.3A14.44,14.44,0,0,1,25,23.9l-.23-.1-.08,0v-.09a29.26,29.26,0,0,1,2.45-11.41C29.54,6.93,34.76.5,46,.13l1.31,0V1.39a33.39,33.39,0,0,1-.86,7.09c-1.18,5.21-3.46,9.38-6.57,12.06A16.13,16.13,0,0,1,29.09,24.3ZM25,23.57l.1,0a14.21,14.21,0,0,0,4,.39,15.84,15.84,0,0,0,10.65-3.69c3.07-2.63,5.31-6.75,6.48-11.89a33.05,33.05,0,0,0,.85-7v-1l-1,0c-11.13.37-16.28,6.71-18.63,12A29.05,29.05,0,0,0,25,23.57ZM29.06,22q-.91,0-1.88-.09H27v-.15a27.1,27.1,0,0,1,2.17-8.61C32.15,6.64,37.43,3,44.9,2.45h.17v.17c-.2,3.35-1.26,11.62-6.61,16.22A14,14,0,0,1,29.06,22Zm-1.7-.37c4.44.37,8.1-.67,10.9-3.07,5.18-4.44,6.27-12.42,6.5-15.83-7.27.61-12.41,4.16-15.27,10.54A26.74,26.74,0,0,0,27.36,21.67Z"/></g></g></svg>