<svg xmlns="http://www.w3.org/2000/svg" viewBox="0 0 230.77 57.6"><defs><style>.cls-1{fill:#3cac54;}</style></defs><title>smartcrop-text-logo-invert_1</title><g id="Layer_2" data-name="Layer 2"><g id="Layer_1-2" data-name="Layer 1"><path class="cls-1" d="M33.12,47.2h-24l1.41,1.41V30.76L9.16,32.17h24l-1.41-1.41V48.62a1.41,1.41,0,0,0,2.82,0V30.76a1.43,1.43,0,0,0-1.41-1.41h-24a1.43,1.43,0,0,0-1.41,1.41V48.62A1.43,1.43,0,0,0,9.16,50h24A1.41,1.41,0,0,0,33.12,47.2Z"/><path class="cls-1" d="M14.24,31.89a1.13,1.13,0,0,1-1.13-1.13V27.59a1.13,1.13,0,0,1,2.26,0v3.17A1.13,1.13,0,0,1,14.24,31.89Z"/><path class="cls-1" d="M28.2,31.89a1.13,1.13,0,0,1-1.13-1.13V27.59a1.13,1.13,0,0,1,2.26,0v3.17A1.13,1.13,0,0,1,28.2,31.89Z"/><path class="cls-1" d="M26.46,42.57H15.7l1.13,1.13v-8L15.7,36.81H26.46l-1.13-1.13v8a1.13,1.13,0,0,0,2.26,0v-8a1.15,1.15,0,0,0-1.13-1.13H15.7a1.15,1.15,0,0,0-1.13,1.13v8a1.15,1.15,0,0,0,1.13,1.13H26.46A1.13,1.13,0,0,0,26.46,42.57Z"/><path class="cls-1" d="M9.16,47.76H6A1.13,1.13,0,0,1,6,45.5H9.16a1.13,1.13,0,1,1,0,2.26Z"/><path class="cls-1" d="M9.16,33.8H6a1.13,1.13,0,0,1,0-2.26H9.16a1.13,1.13,0,0,1,0,2.26Z"/><path class="cls-1" d="M9.16,40.78H6a1.13,1.13,0,0,1,0-2.26H9.16a1.13,1.13,0,1,1,0,2.26Z"/><path class="cls-1" d="M28.2,53a1.13,1.13,0,0,1-1.13-1.13V48.7a1.13,1.13,0,1,1,2.26,0v3.17A1.13,1.13,0,0,1,28.2,53Z"/><path class="cls-1" d="M14.24,53a1.13,1.13,0,0,1-1.13-1.13V48.7a1.13,1.13,0,1,1,2.26,0v3.17A1.13,1.13,0,0,1,14.24,53Z"/><path class="cls-1" d="M21.22,53a1.13,1.13,0,0,1-1.13-1.13V48.7a1.13,1.13,0,1,1,2.26,0v3.17A1.13,1.13,0,0,1,21.22,53Z"/><path class="cls-1" d="M36.3,47.92H33.12a1.13,1.13,0,1,1,0-2.26H36.3a1.13,1.13,0,1,1,0,2.26Z"/><path class="cls-1" d="M36.3,34H33.12a1.13,1.13,0,0,1,0-2.26H36.3a1.13,1.13,0,0,1,0,2.26Z"/><path class="cls-1" d="M36.3,40.94H33.12a1.13,1.13,0,0,1,0-2.26H36.3a1.13,1.13,0,1,1,0,2.26Z"/><path class="cls-1" d="M20.1,31V23.83C15,24.26,10.71,23,7.38,20.18,4.29,17.53,2,13.39.86,8.21A33.47,33.47,0,0,1,0,1.16V0L1.17,0c11.21.37,16.39,6.75,18.76,12a29.07,29.07,0,0,1,2.43,11.33V31M2.3,2.36c.19,3.1,1.2,11.51,6.56,16.11C11.73,20.93,15.48,22,20,21.57a27.15,27.15,0,0,0-2.18-8.63C14.92,6.49,9.7,2.94,2.3,2.36Z"/><path class="cls-1" d="M28.94,24a25.1,25.1,0,0,1-4-.34l0-.15H24.7a29,29,0,0,1,2.43-11.35C29.51,6.88,34.69.5,45.9.12l1.16,0V1.24a33.47,33.47,0,0,1-.86,7.05c-1.18,5.18-3.43,9.32-6.53,12A16,16,0,0,1,28.94,24ZM27,21.65c4.54.4,8.29-.63,11.16-3.09,5.36-4.6,6.37-13,6.56-16.11C37.34,3,32.11,6.6,29.2,13.09A27.11,27.11,0,0,0,27,21.65Z"/></g><g id="Layer_2-2" data-name="Layer 2"><path class="cls-1" d="M54.91,48.57a8.82,8.82,0,0,1-3.38-2,1.52,1.52,0,0,1-.47-1.12,1.67,1.67,0,0,1,.72-1.4,2.18,2.18,0,0,1,1.26-.5,1.93,1.93,0,0,1,1.37.65,5.56,5.56,0,0,0,2.05,1.31,7.66,7.66,0,0,0,2.92.56,6.19,6.19,0,0,0,3.19-.68,2.07,2.07,0,0,0,1.13-1.84,2.17,2.17,0,0,0-1.12-1.85,11,11,0,0,0-3.78-1.24q-6.91-1.33-6.91-5.69a4.45,4.45,0,0,1,1-3A6.35,6.35,0,0,1,55.67,30a10.5,10.5,0,0,1,3.6-.61,11,11,0,0,1,4.19.76,7.18,7.18,0,0,1,2.93,2.09,1.83,1.83,0,0,1,.47,1.15,1.44,1.44,0,0,1-.61,1.12,1.67,1.67,0,0,1-1,.29,2.46,2.46,0,0,1-1.69-.68,5.39,5.39,0,0,0-1.91-1.17,7.69,7.69,0,0,0-2.45-.34,5.83,5.83,0,0,0-2.72.56,1.72,1.72,0,0,0-1.06,1.57,2,2,0,0,0,.36,1.21,3.19,3.19,0,0,0,1.37.9,17.4,17.4,0,0,0,2.92.81,12.55,12.55,0,0,1,5.56,2.2,4.56,4.56,0,0,1,1.64,3.64,5.3,5.3,0,0,1-.9,3,6,6,0,0,1-2.65,2.12,10.29,10.29,0,0,1-4.19.77A13.85,13.85,0,0,1,54.91,48.57Z"/><path class="cls-1" d="M95.86,31.36a8,8,0,0,1,1.93,5.72v10.3a1.81,1.81,0,0,1-.5,1.31,1.85,1.85,0,0,1-3.17-1.31V37.08A4.61,4.61,0,0,0,93,33.75a3.9,3.9,0,0,0-2.93-1.13A4,4,0,0,0,87,33.92a4.67,4.67,0,0,0-1.21,3.31V47.38a1.81,1.81,0,0,1-.5,1.31,1.85,1.85,0,0,1-3.17-1.31V37.08A4.61,4.61,0,0,0,81,33.75a3.9,3.9,0,0,0-2.93-1.13A4.06,4.06,0,0,0,75,33.92a4.67,4.67,0,0,0-1.21,3.31V47.38a1.81,1.81,0,0,1-.5,1.31,1.84,1.84,0,0,1-3.17-1.31v-16A1.77,1.77,0,0,1,70.63,30a1.82,1.82,0,0,1,1.31-.5,1.79,1.79,0,0,1,1.3.49,1.82,1.82,0,0,1,.54,1.28A6.61,6.61,0,0,1,76,29.83a7.46,7.46,0,0,1,2.81-.52,7.2,7.2,0,0,1,3.29.74,6.32,6.32,0,0,1,2.39,2.11,7.53,7.53,0,0,1,2.7-2.09,8.41,8.41,0,0,1,3.6-.76A6.61,6.61,0,0,1,95.86,31.36Z"/><path class="cls-1" d="M116,30.66a9.69,9.69,0,0,1,3.56,3.6,10,10,0,0,1,1.31,5.09v8a1.84,1.84,0,1,1-3.67,0V46a9.07,9.07,0,0,1-11.65,2,9.08,9.08,0,0,1-3.31-3.58,10.74,10.74,0,0,1-1.21-5.09,10.14,10.14,0,0,1,1.3-5.09,9.46,9.46,0,0,1,3.58-3.6A10,10,0,0,1,111,29.34,9.78,9.78,0,0,1,116,30.66ZM114.26,45.2a6.22,6.22,0,0,0,2.29-2.41,7.11,7.11,0,0,0,.83-3.44,7.22,7.22,0,0,0-.83-3.46,6.35,6.35,0,0,0-8.8-2.43,6.33,6.33,0,0,0-2.3,2.43,7.08,7.08,0,0,0-.85,3.46,7,7,0,0,0,.85,3.44,6.35,6.35,0,0,0,2.3,2.41,6.47,6.47,0,0,0,6.52,0Z"/><path class="cls-1" d="M137.21,29.85a1.68,1.68,0,0,1,1.08,1.44,1.27,1.27,0,0,1,0,.36,1.39,1.39,0,0,1-1.44,1.15,2.94,2.94,0,0,1-.54-.07,14.32,14.32,0,0,0-2.34-.25,6.79,6.79,0,0,0-4.18,1.19,3.8,3.8,0,0,0-1.58,3.2V47.38a1.84,1.84,0,0,1-.45,1.33,1.79,1.79,0,0,1-1.35.47,1.84,1.84,0,0,1-1.33-.45,1.79,1.79,0,0,1-.47-1.35V31.29a1.63,1.63,0,0,1,1.8-1.8,1.59,1.59,0,0,1,1.8,1.8V32a7.59,7.59,0,0,1,2.66-2,8.07,8.07,0,0,1,3.38-.72A6.42,6.42,0,0,1,137.21,29.85Z"/><path class="cls-1" d="M149.75,46.08a1.88,1.88,0,0,1,.45,1.3,1.62,1.62,0,0,1-.59,1.3,2.28,2.28,0,0,1-1.53.5h-.65a5.93,5.93,0,0,1-3.22-.92,6.39,6.39,0,0,1-2.29-2.5,7.56,7.56,0,0,1-.83-3.56V33.3h-1.66a1.73,1.73,0,0,1-1.22-.43,1.41,1.41,0,0,1-.47-1.08,1.49,1.49,0,0,1,.47-1.15,1.73,1.73,0,0,1,1.22-.43h1.66V25a1.8,1.8,0,1,1,3.6,0v5.18h3.06a1.73,1.73,0,0,1,1.22.43,1.5,1.5,0,0,1,.47,1.15,1.41,1.41,0,0,1-.47,1.08,1.73,1.73,0,0,1-1.22.43H144.7V42.2a3.69,3.69,0,0,0,.79,2.41,2.42,2.42,0,0,0,1.94,1h1.22A1.42,1.42,0,0,1,149.75,46.08Z"/><path class="cls-1" d="M156.72,48a9.24,9.24,0,0,1-3.55-3.58,10.27,10.27,0,0,1-1.28-5.09,10.65,10.65,0,0,1,1.24-5.17,8.94,8.94,0,0,1,3.47-3.56,10,10,0,0,1,5-1.28,9,9,0,0,1,7.06,3.24,1.35,1.35,0,0,1,.36.94,1.58,1.58,0,0,1-.79,1.33,1.4,1.4,0,0,1-.83.25,1.81,1.81,0,0,1-1.4-.65,5.72,5.72,0,0,0-2-1.42,6.18,6.18,0,0,0-2.43-.45,5.87,5.87,0,0,0-4.5,1.85,6.92,6.92,0,0,0-1.73,4.91,7.31,7.31,0,0,0,.81,3.47,6,6,0,0,0,2.27,2.39,6.4,6.4,0,0,0,3.33.86,6,6,0,0,0,4-1.26,2.26,2.26,0,0,1,1.33-.5,1.53,1.53,0,0,1,.94.32,1.68,1.68,0,0,1,.68,1.3,1.35,1.35,0,0,1-.43,1,9.15,9.15,0,0,1-6.48,2.41A10.12,10.12,0,0,1,156.72,48Z"/><path class="cls-1" d="M185.38,29.85a1.68,1.68,0,0,1,1.08,1.44,1.27,1.27,0,0,1,0,.36A1.39,1.39,0,0,1,185,32.8a2.94,2.94,0,0,1-.54-.07,14.32,14.32,0,0,0-2.34-.25,6.79,6.79,0,0,0-4.18,1.19,3.8,3.8,0,0,0-1.58,3.2V47.38a1.84,1.84,0,0,1-.45,1.33,1.79,1.79,0,0,1-1.35.47,1.84,1.84,0,0,1-1.33-.45,1.79,1.79,0,0,1-.47-1.35V31.29a1.63,1.63,0,0,1,1.8-1.8,1.59,1.59,0,0,1,1.8,1.8V32A7.59,7.59,0,0,1,179,30a8.07,8.07,0,0,1,3.38-.72A6.42,6.42,0,0,1,185.38,29.85Z"/><path class="cls-1" d="M192.21,48a9,9,0,0,1-3.53-3.55,11.22,11.22,0,0,1,0-10.33,9,9,0,0,1,3.53-3.55,10.31,10.31,0,0,1,5.15-1.28,10.14,10.14,0,0,1,5.09,1.28A9.19,9.19,0,0,1,206,34.17a11.15,11.15,0,0,1,0,10.33A9.06,9.06,0,0,1,202.49,48a10.21,10.21,0,0,1-5.13,1.28A10.31,10.31,0,0,1,192.21,48Zm8.44-2.83a6,6,0,0,0,2.27-2.39,7.33,7.33,0,0,0,.81-3.47,7.43,7.43,0,0,0-.81-3.49,6,6,0,0,0-2.27-2.41,6.71,6.71,0,0,0-6.59,0,6.07,6.07,0,0,0-2.29,2.41,7.28,7.28,0,0,0-.83,3.49,7.18,7.18,0,0,0,.83,3.47,6.1,6.1,0,0,0,2.29,2.39,6.72,6.72,0,0,0,6.59,0Z"/><path class="cls-1" d="M225.89,30.66a9.48,9.48,0,0,1,3.58,3.6,10.15,10.15,0,0,1,1.3,5.09,10.75,10.75,0,0,1-1.21,5.09A9.09,9.09,0,0,1,226.25,48a9,9,0,0,1-11.65-2v9.72a1.87,1.87,0,0,1-3.15,1.33,1.77,1.77,0,0,1-.52-1.33V39.35a10,10,0,0,1,1.31-5.09,9.71,9.71,0,0,1,8.59-4.91A10,10,0,0,1,225.89,30.66Zm-1.8,14.54a6.36,6.36,0,0,0,2.3-2.41,7,7,0,0,0,.85-3.44,7.09,7.09,0,0,0-.85-3.46,6.34,6.34,0,0,0-2.3-2.43,6.27,6.27,0,0,0-8.8,2.43,7.22,7.22,0,0,0-.83,3.46,7.11,7.11,0,0,0,.83,3.44,6.36,6.36,0,0,0,8.8,2.41Z"/></g></g></svg>