<svg xmlns="http://www.w3.org/2000/svg" viewBox="0 0 372 412.52"><defs><style>.cls-1{fill:#fafaf8;}.cls-2,.cls-5{fill:#fff;}.cls-2,.cls-3{stroke:#53c419;stroke-width:3px;}.cls-2,.cls-3,.cls-5{stroke-miterlimit:10;}.cls-3{fill:none;}.cls-4{fill:#53c419;}.cls-5{stroke:#e2e2e2;stroke-width:2px;}</style></defs><title>smartcrop-icon</title><g id="Layer_2" data-name="Layer 2"><g id="Layer_11" data-name="Layer 11"><circle class="cls-1" cx="186" cy="210.94" r="186"/></g><g id="Layer_9" data-name="Layer 9"><path class="cls-2" d="M98.32,396.71s38,12.8,79.83,14.18c53.48,1.77,115.12-14.74,94-59.89,0,0,2.13,15.1-12.42,29.94-18.6,19-76.88,30.32-149,7.88v-41a251.5,251.5,0,0,0,58.54,9.46c44.56,1.86,99-5.64,108.21-34.67l5.32-228.53s7.1-15.76-37.25-22.06L98.32,106.72Z"/></g><g id="Layer_10" data-name="Layer 10"><path class="cls-3" d="M283.19,102.6"/><path class="cls-3" d="M99.38,108.68c-1,.48,51.54,4.09,106.44,3.21,37.19-.59,70.33-8.27,77.17-17.83"/><polygon class="cls-2" points="98.63 96.03 237.44 60.48 238.16 1.94 99.35 37.49 98.63 96.03"/></g><g id="Layer_12" data-name="Layer 12"><circle class="cls-4" cx="13.5" cy="297.44" r="4.5"/><circle class="cls-4" cx="335.5" cy="112.44" r="4.5"/></g><g id="Layer_13" data-name="Layer 13"><path class="cls-5" d="M39.06,93.93l12.06,44.51A13,13,0,1,1,39,141.65L27.15,96.91"/></g><g id="Layer_16" data-name="Layer 16"><path class="cls-5" d="M27.16,97.07a6.81,6.81,0,0,1,12-3"/></g><g id="Layer_15" data-name="Layer 15"><line class="cls-5" x1="47.44" y1="125.51" x2="41.84" y2="126.93"/><line class="cls-5" x1="45.49" y1="117.81" x2="39.89" y2="119.23"/><line class="cls-5" x1="43.71" y1="110.81" x2="38.11" y2="112.23"/><line class="cls-5" x1="41.76" y1="103.11" x2="36.16" y2="104.53"/></g><g id="Layer_18" data-name="Layer 18"><path class="cls-5" d="M318,301.39s-31.43-11.93,12.69-43.44C330.68,257.95,351.4,306.15,318,301.39Z"/></g></g></svg>