<svg xmlns="http://www.w3.org/2000/svg" viewBox="0 0 372 407.17"><defs><style>.cls-1{fill:#f6f7f3;}.cls-2,.cls-7{fill:#fff;}.cls-2,.cls-4{stroke:#3cac54;}.cls-2,.cls-3,.cls-4,.cls-6,.cls-7{stroke-miterlimit:10;}.cls-2,.cls-3,.cls-4{stroke-width:3px;}.cls-3,.cls-4,.cls-6{fill:none;}.cls-3{stroke:#53c419;}.cls-5{fill:#3cac54;}.cls-6,.cls-7{stroke:#e2e2e2;stroke-width:2px;}</style></defs><title>smartcrop-icon-final</title><g id="Layer_2" data-name="Layer 2"><g id="Layer_11" data-name="Layer 11"><circle class="cls-1" cx="186" cy="205.59" r="186"/></g><g id="Layer_9" data-name="Layer 9"><path class="cls-2" d="M111.74,352.9v30.58c72.13,22.44,129.42,11.09,148-7.88,14.55-14.84,12.42-29.94,12.42-29.94,21.1,45.15-40.54,61.66-94,59.89-41.8-1.38-79.83-14.18-79.83-14.18v-290L245.56,66.69c44.35,6.3,37.25,22.06,37.25,22.06l-3.19,137,0,1.66-.22,9.56c-9.19,29-63.65,36.54-108.21,34.67a251.5,251.5,0,0,1-58.54-9.46v10.4Z"/><path class="cls-2" d="M275.5,250.74v78.35c-13,85-153,44-153,44v-99c141,27,153-26,153-26v-3.32"/><line class="cls-2" x1="275.5" y1="248.09" x2="275.5" y2="250.74"/></g><g id="Layer_10" data-name="Layer 10"><path class="cls-3" d="M283.19,97.25"/><path class="cls-4" d="M99.38,103.33c-1,.48,51.54,4.09,106.44,3.21,37.19-.59,70.33-8.27,77.17-17.83"/><polygon class="cls-2" points="98.75 93.35 238.22 60.42 240.04 1.91 100.58 34.84 98.75 93.35"/></g><g id="Layer_12" data-name="Layer 12"><circle class="cls-5" cx="13.5" cy="292.09" r="4.5"/><circle class="cls-5" cx="346.5" cy="125.09" r="4.5"/></g><g id="Layer_13" data-name="Layer 13"><path class="cls-6" d="M39.06,88.58l12.06,44.51A13,13,0,1,1,39,136.3L27.15,91.55"/></g><g id="Layer_16" data-name="Layer 16"><path class="cls-6" d="M27.16,91.72a6.81,6.81,0,0,1,12-3"/></g><g id="Layer_15" data-name="Layer 15"><line class="cls-7" x1="47.44" y1="120.16" x2="41.84" y2="121.58"/><line class="cls-7" x1="45.49" y1="112.46" x2="39.89" y2="113.88"/><line class="cls-7" x1="43.71" y1="105.46" x2="38.11" y2="106.88"/><line class="cls-7" x1="41.76" y1="97.76" x2="36.16" y2="99.18"/></g><g id="Layer_18" data-name="Layer 18"><path class="cls-6" d="M318,296s-31.43-11.93,12.69-43.44C330.68,252.6,351.4,300.8,318,296Z"/></g></g></svg>