<svg xmlns="http://www.w3.org/2000/svg" viewBox="0 0 372 383.9"><defs><style>.cls-1{fill:#f6f7f3;}.cls-2{fill:#fff;}.cls-2,.cls-4{stroke:#3cac54;}.cls-2,.cls-3,.cls-4,.cls-6{stroke-miterlimit:10;}.cls-2,.cls-3,.cls-4{stroke-width:3px;}.cls-3,.cls-4,.cls-6{fill:none;}.cls-3{stroke:#53c419;}.cls-5{fill:#3cac54;}.cls-6{stroke:#e2e2e2;stroke-width:2px;}</style></defs><title>smartcrop-icon-final-fix2</title><g id="Layer_2" data-name="Layer 2"><g id="Layer_11" data-name="Layer 11"><circle class="cls-1" cx="186" cy="197.4" r="186"/></g><g id="Layer_9" data-name="Layer 9"><path class="cls-2" d="M102.49,326.71V359c76.12,23.68,136.57,11.71,156.19-8.32,15.35-15.66,13.1-31.6,13.1-31.6,22.27,47.64-42.78,65.07-99.22,63.2-44.11-1.46-84.24-15-84.24-15v-306L243.7,24.7C290.5,31.35,283,48,283,48l-3.37,144.56,0,1.75-.24,10.09C269.67,235,212.2,242.94,165.18,241a265.4,265.4,0,0,1-61.78-10v11Z"/><path class="cls-2" d="M275.29,218.91v82.67C261.57,391.28,113.84,348,113.84,348V243.55C262.63,272,275.29,216.11,275.29,216.11v-3.5"/><line class="cls-2" x1="274.29" y1="216.11" x2="274.29" y2="218.91"/></g><g id="Layer_10" data-name="Layer 10"><path class="cls-3" d="M282.4,56.94"/><path class="cls-4" d="M283.19,47.93C276,58,241,66.11,201.76,66.74c-57.93.93-113.37-2.88-112.32-3.39L88.51,62"/><polyline class="cls-2" points="239.82 17.71 88.28 53.39 88.64 38.24 241.52 1.9 241.52 17.3 233.08 19.31"/></g><g id="Layer_12" data-name="Layer 12"><circle class="cls-5" cx="13.5" cy="283.9" r="4.5"/><circle class="cls-5" cx="346.5" cy="116.9" r="4.5"/></g><g id="Layer_13" data-name="Layer 13"><path class="cls-6" d="M39.06,80.39,51.12,124.9A13,13,0,1,1,39,128.11L27.15,83.37"/></g><g id="Layer_16" data-name="Layer 16"><path class="cls-6" d="M27.16,83.53a6.81,6.81,0,0,1,12-3"/></g><g id="Layer_18" data-name="Layer 18"><path class="cls-6" d="M318,287.85s-31.43-11.93,12.69-43.44C330.68,244.41,351.4,292.61,318,287.85Z"/></g></g></svg>