<svg xmlns="http://www.w3.org/2000/svg" viewBox="0 0 1152 299.08"><defs><style>.cls-1{fill:#fff;}</style></defs><title>lksjflkjfrw</title><g id="Layer_2" data-name="Layer 2"><g id="Layer_1-2" data-name="Layer 1"><path class="cls-1" d="M168.17,244.43H47l7.14,7.14V161.32L47,168.45H168.17L161,161.32v90.25c0,9.19,14.28,9.2,14.28,0V161.32a7.24,7.24,0,0,0-7.14-7.14H47a7.24,7.24,0,0,0-7.14,7.14v90.25A7.24,7.24,0,0,0,47,258.7H168.17C177.36,258.7,177.37,244.43,168.17,244.43Z"/><path class="cls-1" d="M168.17,259.46H47a8,8,0,0,1-7.9-7.9V161.32a8,8,0,0,1,7.9-7.9H168.17a8,8,0,0,1,7.89,7.9v90.25a7.93,7.93,0,0,1-7.89,7.9ZM47,154.94a6.46,6.46,0,0,0-6.38,6.38v90.25A6.46,6.46,0,0,0,47,257.94H163.63a6.9,6.9,0,0,1-.86-.63,7.31,7.31,0,0,1-2.5-5.75v-6.38H54.93v8.21l-9.73-9.73h8.21V169.21H45.21l9.73-9.73v8.21H160.28v-8.21l9.73,9.73h-8.21v74.45h6.38a7.25,7.25,0,0,1,6.38,3.38V161.32a6.46,6.46,0,0,0-6.38-6.38Zm114.75,90.25v6.38c0,4.22,3.31,6.14,6.38,6.14a5.65,5.65,0,0,0,6.13-6.14c0-3.07-1.92-6.37-6.14-6.37Zm-112.92,0,4.55,4.55v-4.55Zm6.06-1.52H160.28V169.21H54.93Zm106.86-76h4.55l-4.55-4.55Zm-112.92,0h4.55v-4.55Z"/><path class="cls-1" d="M72.71,167A5.71,5.71,0,0,1,67,161.32v-16a5.71,5.71,0,0,1,11.42,0v16A5.71,5.71,0,0,1,72.71,167Z"/><path class="cls-1" d="M72.71,167.79a6.48,6.48,0,0,1-6.47-6.47v-16a6.47,6.47,0,1,1,12.94,0v16A6.48,6.48,0,0,1,72.71,167.79Zm0-27.47a5,5,0,0,0-5,5v16a5,5,0,0,0,9.91,0v-16A5,5,0,0,0,72.71,140.32Z"/><path class="cls-1" d="M143.3,167a5.71,5.71,0,0,1-5.71-5.71v-16a5.71,5.71,0,0,1,11.42,0v16A5.71,5.71,0,0,1,143.3,167Z"/><path class="cls-1" d="M143.3,167.79a6.48,6.48,0,0,1-6.47-6.47v-16a6.47,6.47,0,1,1,12.93,0v16A6.47,6.47,0,0,1,143.3,167.79Zm0-27.47a5,5,0,0,0-5,5v16a5,5,0,0,0,9.9,0v-16A5,5,0,0,0,143.3,140.32Z"/><path class="cls-1" d="M134.48,221H80.1l5.71,5.71V186.19L80.1,191.9h54.38l-5.71-5.71V226.7c0,7.35,11.42,7.36,11.42,0V186.19a5.79,5.79,0,0,0-5.71-5.71H80.1a5.79,5.79,0,0,0-5.71,5.71V226.7a5.79,5.79,0,0,0,5.71,5.71h54.38C141.83,232.41,141.84,221,134.48,221Z"/><path class="cls-1" d="M134.48,233.17H80.1a6.56,6.56,0,0,1-6.47-6.47V186.19a6.56,6.56,0,0,1,6.47-6.47h54.38a6.56,6.56,0,0,1,6.47,6.47V226.7a6.5,6.5,0,0,1-6.47,6.47ZM80.1,181.24a5,5,0,0,0-5,5V226.7a5,5,0,0,0,5,5h50.27a6,6,0,0,1-2.37-5v-5H86.57v6.78l-8.3-8.3h6.78V192.65H78.27l8.3-8.29v6.77H128v-6.77l8.3,8.29h-6.78v27.57h5a6,6,0,0,1,5,2.37V186.19a5,5,0,0,0-5-5Zm49.42,40.51v5a4.67,4.67,0,0,0,5,4.76,4.37,4.37,0,0,0,4.75-4.76,4.66,4.66,0,0,0-4.76-4.95Zm-47.59,0,3.12,3.12v-3.12Zm4.64-1.52H128V192.65H86.57Zm43-29.09h3.12L129.52,188Zm-47.59,0h3.12V188Z"/><path class="cls-1" d="M47,247.25H31a5.71,5.71,0,1,1,0-11.42H47a5.71,5.71,0,1,1,0,11.42Z"/><path class="cls-1" d="M47,248H31a6.47,6.47,0,0,1,0-12.94H47A6.47,6.47,0,0,1,47,248ZM31,236.59a5,5,0,1,0,0,9.9H47a5,5,0,1,0,0-9.9Z"/><path class="cls-1" d="M47,176.65H31a5.71,5.71,0,1,1,0-11.42H47a5.71,5.71,0,1,1,0,11.42Z"/><path class="cls-1" d="M47,177.41H31a6.47,6.47,0,1,1,0-12.94H47a6.47,6.47,0,1,1,0,12.94ZM31,166a4.95,4.95,0,1,0,0,9.9H47a4.95,4.95,0,1,0,0-9.9Z"/><path class="cls-1" d="M47,212H31a5.71,5.71,0,1,1,0-11.42H47A5.71,5.71,0,1,1,47,212Z"/><path class="cls-1" d="M47,212.71H31a6.47,6.47,0,0,1,0-12.94H47a6.47,6.47,0,0,1,0,12.94ZM31,201.29a5,5,0,1,0,0,9.9H47a5,5,0,1,0,0-9.9Z"/><path class="cls-1" d="M143.3,273.72a5.71,5.71,0,0,1-5.71-5.71V252A5.71,5.71,0,0,1,149,252v16A5.71,5.71,0,0,1,143.3,273.72Z"/><path class="cls-1" d="M143.3,274.48a6.48,6.48,0,0,1-6.47-6.47V252a6.47,6.47,0,1,1,12.93,0v16A6.47,6.47,0,0,1,143.3,274.48Zm0-27.46a5,5,0,0,0-5,5v16a5,5,0,0,0,9.9,0V252A5,5,0,0,0,143.3,247Z"/><path class="cls-1" d="M72.71,273.72A5.71,5.71,0,0,1,67,268V252a5.71,5.71,0,0,1,11.42,0v16A5.71,5.71,0,0,1,72.71,273.72Z"/><path class="cls-1" d="M72.71,274.48A6.48,6.48,0,0,1,66.24,268V252a6.47,6.47,0,1,1,12.94,0v16A6.48,6.48,0,0,1,72.71,274.48Zm0-27.46a5,5,0,0,0-5,5v16a5,5,0,0,0,9.91,0V252A5,5,0,0,0,72.71,247Z"/><path class="cls-1" d="M108,273.72a5.71,5.71,0,0,1-5.71-5.71V252a5.71,5.71,0,0,1,11.42,0v16A5.71,5.71,0,0,1,108,273.72Z"/><path class="cls-1" d="M108,274.48a6.47,6.47,0,0,1-6.47-6.47V252a6.47,6.47,0,1,1,12.93,0v16A6.48,6.48,0,0,1,108,274.48ZM108,247a5,5,0,0,0-5,5v16a5,5,0,0,0,9.9,0V252A5,5,0,0,0,108,247Z"/><path class="cls-1" d="M184.21,248.05h-16a5.71,5.71,0,0,1,0-11.42h16a5.71,5.71,0,1,1,0,11.42Z"/><path class="cls-1" d="M184.21,248.81h-16a6.47,6.47,0,1,1,0-12.94h16a6.47,6.47,0,1,1,0,12.94Zm-16-11.42a4.95,4.95,0,1,0,0,9.9h16a4.95,4.95,0,1,0,0-9.9Z"/><path class="cls-1" d="M184.21,177.46h-16a5.71,5.71,0,0,1,0-11.42h16a5.71,5.71,0,0,1,0,11.42Z"/><path class="cls-1" d="M184.21,178.22h-16a6.47,6.47,0,0,1,0-12.94h16a6.47,6.47,0,0,1,0,12.94Zm-16-11.42a5,5,0,1,0,0,9.9h16a5,5,0,1,0,0-9.9Z"/><path class="cls-1" d="M184.21,212.75h-16a5.71,5.71,0,0,1,0-11.42h16a5.71,5.71,0,1,1,0,11.42Z"/><path class="cls-1" d="M184.21,213.51h-16a6.47,6.47,0,0,1,0-12.94h16a6.47,6.47,0,0,1,0,12.94Zm-16-11.42a5,5,0,1,0,0,9.9h16a5,5,0,1,0,0-9.9Z"/><path class="cls-1" d="M102.33,157.46l0-36.25c-25.89,2.2-47.48-4-64.3-18.42-15.63-13.42-27-34.35-33-60.53A169.15,169.15,0,0,1,.76,6.63L.82.78,6.66,1C63.33,2.87,89.5,35.12,101.48,61.85a146.91,146.91,0,0,1,12.31,57.29l0,38.33M12.4,12.73c1,15.66,6,58.19,33.15,81.43C60,106.59,79,111.84,101.94,109.79c-.87-10-3.44-26.83-11-43.61C76.17,33.6,49.78,15.63,12.4,12.73Z"/><path class="cls-1" d="M114.51,157.47H113l0-38.33c0-1.18.37-28.85-12.24-57C88.9,35.63,62.91,3.61,6.63,1.74L1.57,1.57,1.52,6.64A170.12,170.12,0,0,0,5.83,42.1c5.91,26,17.23,46.8,32.73,60.12,16.63,14.28,38.08,20.41,63.74,18.24l.82-.07,0,37.07h-1.52l0-35.43c-25.71,2-47.26-4.26-64-18.67C21.83,89.85,10.34,68.77,4.35,42.44A168.94,168.94,0,0,1,0,6.62L.07,0,6.68.22c57.05,1.9,83.42,34.39,95.49,61.31C114.92,90,114.57,118,114.55,119.15ZM92.51,111c-18.95,0-34.88-5.44-47.46-16.24C18,71.52,12.67,29.69,11.64,12.78l-.05-.87.87.07C50.12,14.9,76.75,33,91.6,65.87a137.19,137.19,0,0,1,11.09,43.85l.07.76-.76.07Q97.14,111,92.51,111ZM13.21,13.56c1.15,17.24,6.65,57.58,32.83,80,14.15,12.14,32.66,17.35,55.07,15.51A135.34,135.34,0,0,0,90.22,66.5C75.73,34.46,49.82,16.65,13.21,13.56Z"/></g><g id="Layer_2-2" data-name="Layer 2"><path class="cls-1" d="M263.15,253.41q-10.91-3.82-17.1-10a7.69,7.69,0,0,1-2.37-5.64,8.46,8.46,0,0,1,3.64-7.09,11,11,0,0,1,6.37-2.55,9.75,9.75,0,0,1,6.92,3.28q3.46,3.82,10.37,6.64a38.72,38.72,0,0,0,14.74,2.81q10.37,0,16.11-3.45t5.73-9.28q0-5.63-5.64-9.37t-19.11-6.28q-34.93-6.73-34.93-28.75a22.48,22.48,0,0,1,5.28-15.1A32.11,32.11,0,0,1,267,159.34a53.07,53.07,0,0,1,18.2-3.09,55.72,55.72,0,0,1,21.19,3.82,36.3,36.3,0,0,1,14.83,10.55,9.27,9.27,0,0,1,2.36,5.82q0,3.09-3.09,5.64a8.42,8.42,0,0,1-5.09,1.46,12.43,12.43,0,0,1-8.55-3.46,27.23,27.23,0,0,0-9.64-5.91,38.87,38.87,0,0,0-12.37-1.73q-8.37,0-13.74,2.82t-5.37,7.92a10,10,0,0,0,1.82,6.1q1.81,2.46,6.92,4.55a87.94,87.94,0,0,0,14.74,4.09q19.83,4,28.11,11.1a23.07,23.07,0,0,1,8.28,18.38A26.79,26.79,0,0,1,321,242.58a30.28,30.28,0,0,1-13.38,10.74q-8.83,3.92-21.19,3.91A70,70,0,0,1,263.15,253.41Z"/><path class="cls-1" d="M470.13,166.43q9.73,10.37,9.73,28.93v52a9.17,9.17,0,0,1-2.55,6.64,9.33,9.33,0,0,1-16-6.64v-52q0-11.1-5.55-16.83t-14.83-5.73a20.32,20.32,0,0,0-15.56,6.55q-6.09,6.55-6.1,16.74V247.4a9.17,9.17,0,0,1-2.55,6.64,9.33,9.33,0,0,1-16-6.64v-52q0-11.1-5.55-16.83t-14.83-5.73q-9.65,0-15.74,6.55t-6.1,16.74V247.4A9.17,9.17,0,0,1,356,254a9.32,9.32,0,0,1-16-6.64v-81a8.94,8.94,0,0,1,2.64-6.73,9.18,9.18,0,0,1,6.64-2.55,9.05,9.05,0,0,1,6.55,2.45,9.2,9.2,0,0,1,2.73,6.46,33.38,33.38,0,0,1,11.28-7.37,37.69,37.69,0,0,1,14.2-2.64,36.4,36.4,0,0,1,16.65,3.73,32,32,0,0,1,12.1,10.65,38.06,38.06,0,0,1,13.65-10.56,42.52,42.52,0,0,1,18.2-3.82Q460.4,156.06,470.13,166.43Z"/><path class="cls-1" d="M572,162.89a49,49,0,0,1,18,18.19,50.74,50.74,0,0,1,6.64,25.75V247.4a9.28,9.28,0,1,1-18.56,0v-6.73a45.82,45.82,0,0,1-58.87,10,45.91,45.91,0,0,1-16.74-18.1,54.3,54.3,0,0,1-6.1-25.75A51.27,51.27,0,0,1,503,181.08a47.83,47.83,0,0,1,18.1-18.19,50.36,50.36,0,0,1,25.56-6.64A49.43,49.43,0,0,1,572,162.89Zm-8.92,73.51a31.46,31.46,0,0,0,11.55-12.19,35.93,35.93,0,0,0,4.19-17.38,36.47,36.47,0,0,0-4.19-17.47,32.08,32.08,0,0,0-44.49-12.28,32,32,0,0,0-11.64,12.28,35.81,35.81,0,0,0-4.28,17.47,35.28,35.28,0,0,0,4.28,17.38,32.12,32.12,0,0,0,11.64,12.19,32.68,32.68,0,0,0,32.93,0Z"/><path class="cls-1" d="M679.1,158.79q5.46,2.92,5.46,7.28a6.44,6.44,0,0,1-.18,1.82q-1.64,5.83-7.28,5.82a14.87,14.87,0,0,1-2.73-.37,72.39,72.39,0,0,0-11.83-1.27q-13.1,0-21.11,6a19.19,19.19,0,0,0-8,16.19V247.4a9.33,9.33,0,0,1-2.28,6.73q-2.27,2.36-6.82,2.36-4.37,0-6.73-2.28t-2.36-6.82V166.07a8.24,8.24,0,0,1,9.1-9.1q9.1,0,9.1,9.1v3.46a38.38,38.38,0,0,1,13.47-10,40.8,40.8,0,0,1,17.1-3.64Q673.64,155.88,679.1,158.79Z"/><path class="cls-1" d="M698.76,160.61v-26.2a9.1,9.1,0,1,1,18.19,0v26.2h15.46a8.76,8.76,0,0,1,6.19,2.18,7.56,7.56,0,0,1,2.36,5.82,7.13,7.13,0,0,1-2.36,5.46,8.76,8.76,0,0,1-6.19,2.18H716.95V221.2a18.67,18.67,0,0,0,4,12.19,12.23,12.23,0,0,0,9.83,4.91H737a7.18,7.18,0,0,1,5.55,2.55,9.5,9.5,0,0,1,2.28,6.55,8.2,8.2,0,0,1-3,6.55,11.55,11.55,0,0,1-7.73,2.55h-3.27a30,30,0,0,1-16.29-4.64,32.3,32.3,0,0,1-11.55-12.65,38.23,38.23,0,0,1-4.19-18V176.26"/><path class="cls-1" d="M777.71,250.68a46.72,46.72,0,0,1-17.92-18.1,51.89,51.89,0,0,1-6.46-25.75,53.85,53.85,0,0,1,6.27-26.11,45.21,45.21,0,0,1,17.56-18,50.36,50.36,0,0,1,25.47-6.46q21.46,0,35.66,16.38a6.82,6.82,0,0,1,1.82,4.73q0,4-4,6.73a7.09,7.09,0,0,1-4.19,1.27,9.14,9.14,0,0,1-7.1-3.27,28.89,28.89,0,0,0-9.92-7.19,31.26,31.26,0,0,0-12.28-2.28q-14,0-22.74,9.37t-8.74,24.84a37,37,0,0,0,4.1,17.56,30.18,30.18,0,0,0,11.46,12.1,32.37,32.37,0,0,0,16.83,4.36q12.37,0,20-6.36a11.41,11.41,0,0,1,6.73-2.55,7.74,7.74,0,0,1,4.73,1.63q3.45,2.92,3.46,6.55a6.81,6.81,0,0,1-2.18,4.92q-13.1,12.19-32.75,12.19A51.14,51.14,0,0,1,777.71,250.68Z"/><path class="cls-1" d="M922.55,158.79q5.46,2.92,5.46,7.28a6.44,6.44,0,0,1-.18,1.82q-1.64,5.83-7.28,5.82a14.87,14.87,0,0,1-2.73-.37A72.39,72.39,0,0,0,906,172.07q-13.1,0-21.11,6a19.19,19.19,0,0,0-8,16.19V247.4a9.33,9.33,0,0,1-2.28,6.73q-2.27,2.36-6.82,2.36-4.37,0-6.73-2.28t-2.36-6.82V166.07a8.24,8.24,0,0,1,9.1-9.1q9.1,0,9.1,9.1v3.46a38.38,38.38,0,0,1,13.47-10,40.8,40.8,0,0,1,17.1-3.64Q917.1,155.88,922.55,158.79Z"/><path class="cls-1" d="M957.13,250.77a45.64,45.64,0,0,1-17.83-17.92,56.72,56.72,0,0,1,0-52.22,45.64,45.64,0,0,1,17.83-17.92,52.12,52.12,0,0,1,26-6.46,51.23,51.23,0,0,1,25.75,6.46,46.47,46.47,0,0,1,17.83,17.92,56.33,56.33,0,0,1,.09,52.22,45.81,45.81,0,0,1-17.74,17.92,51.59,51.59,0,0,1-25.93,6.46A52.11,52.11,0,0,1,957.13,250.77Zm42.67-14.28a30.19,30.19,0,0,0,11.47-12.1,37,37,0,0,0,4.09-17.56,37.54,37.54,0,0,0-4.09-17.65A30.06,30.06,0,0,0,999.8,177a33.91,33.91,0,0,0-33.3,0,30.67,30.67,0,0,0-11.55,12.19,36.77,36.77,0,0,0-4.19,17.65,36.28,36.28,0,0,0,4.19,17.56,30.81,30.81,0,0,0,11.55,12.1,33.94,33.94,0,0,0,33.3,0Z"/><path class="cls-1" d="M1127.35,162.89a47.9,47.9,0,0,1,18.1,18.19,51.32,51.32,0,0,1,6.55,25.75,54.36,54.36,0,0,1-6.1,25.75,46,46,0,0,1-16.74,18.1,45.38,45.38,0,0,1-58.86-10V289.8a9.46,9.46,0,0,1-15.92,6.73,8.94,8.94,0,0,1-2.64-6.73v-83a50.73,50.73,0,0,1,6.64-25.75,49.1,49.1,0,0,1,43.4-24.84A50.39,50.39,0,0,1,1127.35,162.89Zm-9.1,73.51a32.15,32.15,0,0,0,11.64-12.19,35.33,35.33,0,0,0,4.27-17.38,35.86,35.86,0,0,0-4.27-17.47,32.05,32.05,0,0,0-11.64-12.28,31.69,31.69,0,0,0-44.49,12.28,36.47,36.47,0,0,0-4.19,17.47,35.93,35.93,0,0,0,4.19,17.38,32.16,32.16,0,0,0,44.49,12.19Z"/></g><g id="Layer_5" data-name="Layer 5"><path class="cls-1" d="M147,122.07c-6.5,0-13.47,0-20.37-2-.27-.08-1-.44-1-.44a146.78,146.78,0,0,1,12.31-57.36c12-26.72,38.16-59,94.83-60.87l5.84-.19.06,5.84a169.16,169.16,0,0,1-4.33,35.64c-6,26.18-17.36,47.11-33,60.53C186.74,115.76,168.53,122.07,147,122.07Zm-9.56-11.86c23,2,41.91-3.19,56.4-15.62C221,71.34,226.07,28.82,227,13.15c-37.52,2.91-64,21-78.67,53.79A137,137,0,0,0,137.47,110.21Z"/><path class="cls-1" d="M147,122.83c-6.35,0-13.53,0-20.58-2-.3-.08-1.15-.48-1.15-.48l-.43-.2v-.47A147.91,147.91,0,0,1,137.24,62C149.31,35,175.68,2.55,232.74.64l6.62-.22L239.42,7a168.78,168.78,0,0,1-4.35,35.81c-6,26.34-17.48,47.41-33.23,60.93C187.14,116.43,168.7,122.83,147,122.83Zm-20.65-3.69a5.06,5.06,0,0,0,.49.2c6.85,2,13.92,2,20.17,2,21.29,0,39.4-6.28,53.82-18.67,15.5-13.31,26.82-34.1,32.73-60.12A167.06,167.06,0,0,0,237.9,7.06L237.85,2l-5.07.17C176.51,4,150.52,36.05,138.62,62.58A146.85,146.85,0,0,0,126.38,119.14Zm20.5-7.74q-4.62,0-9.48-.43l-.75-.07.06-.75a137,137,0,0,1,11-43.52c14.82-33.05,41.5-51.3,79.3-54.23l.87-.07-.05.87c-1,16.91-6.35,58.74-33.42,82C181.78,106,165.84,111.4,146.88,111.4Zm-8.59-1.88c22.43,1.85,40.94-3.37,55.09-15.51,26.18-22.45,31.69-62.79,32.83-80-36.75,3.1-62.7,21-77.17,53.27A135.16,135.16,0,0,0,138.29,109.52Z"/></g></g></svg>