<svg xmlns="http://www.w3.org/2000/svg" viewBox="0 0 372 372"><defs><style>.cls-1{fill:#fcfcfc;}.cls-2{fill:#3cac54;}.cls-3,.cls-4,.cls-6,.cls-7{fill:none;}.cls-3,.cls-4{stroke:#e2e2e2;}.cls-3,.cls-4,.cls-5,.cls-6,.cls-7{stroke-miterlimit:10;}.cls-3{stroke-width:3px;}.cls-4,.cls-5,.cls-6,.cls-7{stroke-width:2px;}.cls-5{fill:#fff;}.cls-5,.cls-7{stroke:#3cac54;}.cls-6{stroke:#53c419;}</style></defs><title>kjlkjl</title><g id="Layer_2" data-name="Layer 2"><g id="Layer_11" data-name="Layer 11"><circle class="cls-1" cx="186" cy="186" r="186"/></g><g id="Layer_12" data-name="Layer 12"><circle class="cls-2" cx="13.5" cy="272.5" r="4.5"/><circle class="cls-2" cx="346.5" cy="105.5" r="4.5"/></g><g id="Layer_22" data-name="Layer 22"><line class="cls-3" x1="95" y1="89" x2="146" y2="130"/></g><g id="Layer_24" data-name="Layer 24"><line class="cls-3" x1="75" y1="93" x2="48.27" y2="168.52"/></g><g id="Layer_27" data-name="Layer 27"><line class="cls-3" x1="52.89" y1="209.12" x2="141" y2="326"/><line class="cls-3" x1="294.32" y1="283.77" x2="230.75" y2="234.11"/><line class="cls-3" x1="281" y1="82" x2="233.5" y2="122.5"/></g><g id="Layer_30" data-name="Layer 30"><line class="cls-3" x1="178.33" y1="332.05" x2="331" y2="199"/></g><g id="Layer_31" data-name="Layer 31"><line class="cls-3" x1="56.93" y1="290.89" x2="156" y2="49"/></g><g id="Layer_33" data-name="Layer 33"><line class="cls-3" x1="194.17" y1="49.16" x2="321" y2="167"/><line class="cls-3" x1="291.92" y1="90.4" x2="309.25" y2="278.37"/></g><g id="Layer_29" data-name="Layer 29"><line class="cls-3" x1="65" y1="305" x2="290" y2="294"/></g><g id="Layer_34" data-name="Layer 34"><line class="cls-3" x1="162.4" y1="319.48" x2="167" y2="287"/></g><g id="Layer_23" data-name="Layer 23"><path class="cls-4" d="M188.93,46V40.41a5.6,5.6,0,0,0-5.59-5.59H166.59A5.6,5.6,0,0,0,161,40.41V46"/><circle class="cls-4" cx="175.43" cy="25.05" r="6.05"/><circle class="cls-3" cx="174.75" cy="34.75" r="22.75"/></g><g id="Layer_25" data-name="Layer 25"><path class="cls-4" d="M56.93,200v-5.59a5.6,5.6,0,0,0-5.59-5.59H34.59A5.6,5.6,0,0,0,29,194.41V200"/><circle class="cls-4" cx="43.43" cy="179.05" r="6.05"/><circle class="cls-3" cx="42.75" cy="188.75" r="22.75"/></g><g id="Layer_26" data-name="Layer 26"><path class="cls-4" d="M171.93,353v-5.59a5.6,5.6,0,0,0-5.59-5.59H149.59a5.6,5.6,0,0,0-5.59,5.59V353"/><circle class="cls-4" cx="158.43" cy="332.05" r="6.05"/><circle class="cls-3" cx="157.75" cy="341.75" r="22.75"/><path class="cls-4" d="M59.16,312.16v-3.81a3.82,3.82,0,0,0-3.81-3.81H43.94a3.82,3.82,0,0,0-3.81,3.81v3.81"/><circle class="cls-4" cx="49.96" cy="297.89" r="4.12"/><circle class="cls-4" cx="49.5" cy="304.5" r="15.5"/><path class="cls-4" d="M355.93,190v-5.59a5.6,5.6,0,0,0-5.59-5.59H333.59a5.6,5.6,0,0,0-5.59,5.59V190"/><circle class="cls-4" cx="342.43" cy="169.05" r="6.05"/><circle class="cls-3" cx="341.75" cy="178.75" r="22.75"/><path class="cls-4" d="M92.16,87.16V83.36a3.82,3.82,0,0,0-3.81-3.81H76.94a3.82,3.82,0,0,0-3.81,3.81v3.81"/><circle class="cls-4" cx="82.96" cy="72.89" r="4.12"/><circle class="cls-4" cx="82.5" cy="79.5" r="15.5"/><path class="cls-4" d="M304.16,82.16V78.36a3.82,3.82,0,0,0-3.81-3.81H288.94a3.82,3.82,0,0,0-3.81,3.81v3.81"/><circle class="cls-4" cx="294.96" cy="67.89" r="4.12"/><circle class="cls-4" cx="294.5" cy="74.5" r="15.5"/></g><g id="Layer_28" data-name="Layer 28"><path class="cls-4" d="M315.16,302.16v-3.81a3.82,3.82,0,0,0-3.81-3.81H299.94a3.82,3.82,0,0,0-3.81,3.81v3.81"/><circle class="cls-4" cx="305.96" cy="287.89" r="4.12"/><circle class="cls-4" cx="305.5" cy="294.5" r="15.5"/></g><g id="Layer_21" data-name="Layer 21"><path class="cls-5" d="M149.39,259v16.79c39.61,12.32,71.07,6.09,81.28-4.33,8-8.15,6.82-16.44,6.82-16.44,11.59,24.79-22.26,33.86-51.63,32.89-23-.76-43.84-7.79-43.84-7.79V120.9l80.85-19c24.35,3.46,20.46,12.12,20.46,12.12l-1.75,75.22,0,.91-.12,5.25c-5,15.94-35,20.06-59.42,19a138.1,138.1,0,0,1-32.15-5.19v5.71Z"/><path class="cls-5" d="M239.31,199.65v.72s-6.59,30.2-84,15.38v54.36s76.88,22.51,84-24.16v-46.3Z"/><path class="cls-6" d="M234,132.5"/><path class="cls-7" d="M142.12,121.3l.48.68c-.55.26,28.3,2.24,58.45,1.76,20.42-.33,38.62-4.54,42.37-9.79"/><polyline class="cls-5" points="220.85 97.23 141.99 115.8 142.18 107.91 221.74 89 221.74 97.02 217.34 98.06"/><path class="cls-3" d="M265.72,96.64"/></g></g></svg>